# xmcd
#
# Track frame offsets:
#	150
#	12754
#	26292
#	42802
#	55596
#	68333
#	86902
#	100395
#	113436
#	131183
#	142887
#	157630
#	170925
#	191093
#	212331
#	234621
#	247031
#	264609
#	277808
#	292690
#	309859
#
# Disc length: 4342 seconds
#
# Revision: 0
# Processed by: cddbd v1.5.1PL2 Copyright (c) Steve Scherf et al.
# Submitted via: EasyCDDAExtractor 4.6.9.1
#
DISCID=0f10f415
DTITLE=Merle Haggard - For The Record - 43 Legendary Hits - CD2
DYEAR=1999
DGENRE=Country
TTITLE0=The Roots of My Raising
TTITLE1=Cherokee Maiden
TTITLE2=Ramblin' Fever (with Alabama)
TTITLE3=I'm Always On A Mountain When I Fall
TTITLE4=It's Been a Great Afternoon
TTITLE5=Footlights
TTITLE6=The Way I Am
TTITLE7=Misery and Gin
TTITLE8=I Think I'll Just Stay Here And Drink
TTITLE9=Rainbow Stew
TTITLE10=My Favorite Memory
TTITLE11=Big City
TTITLE12=Pancho and Lefty (with Willie Nelson)
TTITLE13=Are the Good Times Really Over
TTITLE14=Going Where the Lonely Go
TTITLE15=Let's Chase Each Other Around
TTITLE16=A Place to Fall Apart
TTITLE17=That's the Way Love Goes (with Jewel)
TTITLE18=Natural High
TTITLE19=Kern River
TTITLE20=Twinkle, Twinkle Lucky Star
EXTD=
EXTT0=
EXTT1=
EXTT2=
EXTT3=
EXTT4=
EXTT5=
EXTT6=
EXTT7=
EXTT8=
EXTT9=
EXTT10=
EXTT11=
EXTT12=
EXTT13=
EXTT14=
EXTT15=
EXTT16=
EXTT17=
EXTT18=
EXTT19=
EXTT20=
PLAYORDER=
